#N canvas 392 139 833 592 10;
#X obj 47 -1259 inlet;
#X obj 92 -1252 r porto_rate;
#X msg 47 -1197 \$1 \$2;
#X obj 47 -1224 pack 0 0;
#X obj 57 -765 outlet~;
#X obj 47 -1169 unpack 0 0;
#X obj 47 -1143 mtof;
#X obj 149 -1105 adsr;
#X obj 213 -1143 sel 0;
#X obj 213 -1115 / 127;
#X obj 58 -850 *~;
#X obj 57 -802 *~;
#X obj 40 -1073 phasor~;
#X obj 40 -1044 -~ 0.5;
#X obj 40 -1107 line~;
#X connect 0 0 3 0;
#X connect 1 0 3 1;
#X connect 2 0 5 0;
#X connect 3 0 2 0;
#X connect 5 0 6 0;
#X connect 5 1 7 0;
#X connect 5 1 8 0;
#X connect 6 0 14 0;
#X connect 7 0 10 1;
#X connect 8 1 9 0;
#X connect 9 0 11 1;
#X connect 10 0 11 0;
#X connect 11 0 4 0;
#X connect 12 0 13 0;
#X connect 13 0 10 0;
#X connect 14 0 12 0;
